<svg fill="none" height="40" viewBox="0 0 40 40" width="40" xmlns="http://www.w3.org/2000/svg"><g fill="#fff"><path d="m22.3566 20 7.643 7.643c.6509.6508.6509 1.7061 0 2.357s-1.7061.6509-2.357 0l-9.2929-9.2929c-.3905-.3905-.3905-1.0237 0-1.4142l9.2929-9.2929c.6509-.65088 1.7061-.65088 2.357 0 .6509.6509.6509 1.7061 0 2.357z"/><path d="m18.1307 20-7.643 7.643c-.65087.6508-.65087 1.7061 0 2.357.6509.6509 1.7062.6509 2.357 0l9.2929-9.2929c.3905-.3905.3905-1.0237 0-1.4142l-9.2929-9.2929c-.6508-.65088-1.7061-.65087-2.357 0-.65087.6509-.65087 1.7061 0 2.357z"/></g></svg>